<svg width="24" height="24" viewBox="0 0 24 24" fill="none" xmlns="http://www.w3.org/2000/svg">
<g clip-path="url(#clip0_754_3615)">
<path d="M6.28711 15.8906V23H4.6416V17.7461L3.02051 18.2197V16.9697L6.13574 15.8906H6.28711ZM9.85156 19.8311L8.54297 19.5234L8.97266 15.8906H13.1279V17.1699H10.3154L10.1543 18.5811C10.2324 18.5355 10.3643 18.4818 10.5498 18.4199C10.7386 18.3548 10.9469 18.3223 11.1748 18.3223C11.5264 18.3223 11.8372 18.376 12.1074 18.4834C12.3809 18.5876 12.612 18.7422 12.8008 18.9473C12.9896 19.1491 13.1312 19.3981 13.2256 19.6943C13.3232 19.9906 13.3721 20.3291 13.3721 20.71C13.3721 21.016 13.3216 21.3122 13.2207 21.5986C13.123 21.8818 12.9717 22.1374 12.7666 22.3652C12.5648 22.5898 12.3092 22.7689 12 22.9023C11.6908 23.0326 11.3245 23.0977 10.9014 23.0977C10.5856 23.0977 10.278 23.0488 9.97852 22.9512C9.67904 22.8535 9.40885 22.7135 9.16797 22.5312C8.93034 22.3457 8.74154 22.1227 8.60156 21.8623C8.46484 21.5986 8.39811 21.304 8.40137 20.9785H10.0566C10.0664 21.151 10.1071 21.3008 10.1787 21.4277C10.2503 21.5547 10.3464 21.654 10.4668 21.7256C10.5905 21.7939 10.7321 21.8281 10.8916 21.8281C11.0544 21.8281 11.1895 21.7956 11.2969 21.7305C11.4043 21.6654 11.4889 21.5758 11.5508 21.4619C11.6126 21.348 11.6566 21.2178 11.6826 21.0713C11.7087 20.9215 11.7217 20.7637 11.7217 20.5977C11.7217 20.4219 11.7021 20.264 11.6631 20.124C11.6273 19.984 11.5687 19.8652 11.4873 19.7676C11.4059 19.6667 11.3001 19.5902 11.1699 19.5381C11.043 19.486 10.89 19.46 10.7109 19.46C10.4733 19.46 10.2861 19.5007 10.1494 19.582C10.0127 19.6634 9.91341 19.7464 9.85156 19.8311Z" fill="white"/>
<path d="M3.20465 7.16137C3.20465 7.16137 19.1011 4.54829 20.9712 7.16137C22.8414 9.77446 21.7374 19.4988 20.9712 20.7494C20.2051 22 18.7051 22 16.7051 21.5" stroke="white" stroke-width="2.5" stroke-linecap="round" stroke-linejoin="round"/>
<path d="M8.20898 1.71558C8.20898 1.71558 2.40615 5.61291 2.40615 7.49991C2.40615 9.38691 8.20898 13.2781 8.20898 13.2781" stroke="white" stroke-width="2.3125" stroke-linecap="round" stroke-linejoin="round"/>
</g>
<defs>
<clipPath id="clip0_754_3615">
<rect width="24" height="24" fill="white"/>
</clipPath>
</defs>
</svg>
