<svg width="24" height="24" viewBox="0 0 24 24" fill="none" xmlns="http://www.w3.org/2000/svg">
<g clip-path="url(#clip0_754_3613)">
<path d="M11.9385 18.7568H12.7393C12.9443 18.7568 13.112 18.721 13.2422 18.6494C13.3757 18.5745 13.4749 18.4704 13.54 18.3369C13.6051 18.2002 13.6377 18.0391 13.6377 17.8535C13.6377 17.7103 13.6068 17.5785 13.5449 17.458C13.4863 17.3376 13.3952 17.2415 13.2715 17.1699C13.1478 17.0951 12.9899 17.0576 12.7979 17.0576C12.6676 17.0576 12.5407 17.0853 12.417 17.1406C12.2933 17.1927 12.1908 17.2676 12.1094 17.3652C12.0312 17.4629 11.9922 17.5817 11.9922 17.7217H10.3418C10.3418 17.318 10.4525 16.973 10.6738 16.6865C10.8984 16.3968 11.193 16.1755 11.5576 16.0225C11.9255 15.8662 12.321 15.7881 12.7441 15.7881C13.2487 15.7881 13.6914 15.8662 14.0723 16.0225C14.4531 16.1755 14.7493 16.4033 14.9609 16.7061C15.1758 17.0055 15.2832 17.3766 15.2832 17.8193C15.2832 18.0635 15.2262 18.293 15.1123 18.5078C14.9984 18.7227 14.8389 18.9115 14.6338 19.0742C14.4287 19.237 14.1878 19.3656 13.9111 19.46C13.6377 19.5511 13.3382 19.5967 13.0127 19.5967H11.9385V18.7568ZM11.9385 19.9824V19.1621H13.0127C13.3675 19.1621 13.6914 19.2028 13.9844 19.2842C14.2773 19.3623 14.5296 19.4795 14.7412 19.6357C14.9528 19.792 15.1156 19.9857 15.2295 20.2168C15.3434 20.4447 15.4004 20.7067 15.4004 21.0029C15.4004 21.335 15.3337 21.6312 15.2002 21.8916C15.0667 22.152 14.8796 22.3717 14.6387 22.5508C14.3978 22.7298 14.1162 22.8665 13.7939 22.9609C13.4717 23.0521 13.1217 23.0977 12.7441 23.0977C12.4479 23.0977 12.1517 23.0586 11.8555 22.9805C11.5592 22.8991 11.2891 22.7754 11.0449 22.6094C10.8008 22.4401 10.6038 22.2253 10.4541 21.9648C10.3076 21.7012 10.2344 21.387 10.2344 21.0225H11.8848C11.8848 21.1722 11.9255 21.3089 12.0068 21.4326C12.0915 21.5531 12.2038 21.6491 12.3438 21.7207C12.4837 21.7923 12.6351 21.8281 12.7979 21.8281C12.9997 21.8281 13.1706 21.7907 13.3105 21.7158C13.4538 21.6377 13.5628 21.5335 13.6377 21.4033C13.7126 21.2731 13.75 21.1283 13.75 20.9688C13.75 20.7279 13.7093 20.5358 13.6279 20.3926C13.5498 20.2493 13.4342 20.1452 13.2812 20.0801C13.1315 20.015 12.9508 19.9824 12.7393 19.9824H11.9385ZM21.1768 18.7959V20.0947C21.1768 20.6058 21.1165 21.0501 20.9961 21.4277C20.8789 21.8053 20.7096 22.1178 20.4883 22.3652C20.2702 22.6126 20.0098 22.7965 19.707 22.917C19.4043 23.0374 19.0706 23.0977 18.7061 23.0977C18.4131 23.0977 18.1396 23.0602 17.8857 22.9854C17.6318 22.9072 17.4023 22.79 17.1973 22.6338C16.9954 22.4743 16.8213 22.2757 16.6748 22.0381C16.5283 21.8005 16.416 21.5205 16.3379 21.1982C16.2598 20.8727 16.2207 20.5049 16.2207 20.0947V18.7959C16.2207 18.2816 16.2793 17.8372 16.3965 17.4629C16.5169 17.0853 16.6878 16.7728 16.9092 16.5254C17.1305 16.278 17.3926 16.0941 17.6953 15.9736C17.998 15.8532 18.3317 15.793 18.6963 15.793C18.9893 15.793 19.2611 15.832 19.5117 15.9102C19.7656 15.985 19.9951 16.1022 20.2002 16.2617C20.4053 16.418 20.5794 16.6149 20.7227 16.8525C20.8691 17.0902 20.9814 17.3717 21.0596 17.6973C21.1377 18.0195 21.1768 18.3857 21.1768 18.7959ZM19.5312 20.2949V18.5859C19.5312 18.3581 19.5182 18.1595 19.4922 17.9902C19.4694 17.821 19.4336 17.6777 19.3848 17.5605C19.3392 17.4434 19.2822 17.349 19.2139 17.2773C19.1455 17.2025 19.0674 17.1488 18.9795 17.1162C18.8949 17.0804 18.8005 17.0625 18.6963 17.0625C18.5661 17.0625 18.4489 17.0902 18.3447 17.1455C18.2438 17.1976 18.1576 17.2822 18.0859 17.3994C18.0143 17.5166 17.959 17.6729 17.9199 17.8682C17.8841 18.0635 17.8662 18.3027 17.8662 18.5859V20.2949C17.8662 20.526 17.8776 20.7279 17.9004 20.9004C17.9264 21.0697 17.9622 21.2145 18.0078 21.335C18.0566 21.4521 18.1152 21.5482 18.1836 21.623C18.252 21.6947 18.3301 21.7467 18.418 21.7793C18.5059 21.8118 18.6019 21.8281 18.7061 21.8281C18.833 21.8281 18.9469 21.8021 19.0479 21.75C19.1488 21.6979 19.235 21.6133 19.3066 21.4961C19.3815 21.3757 19.4368 21.2178 19.4727 21.0225C19.5117 20.8239 19.5312 20.5814 19.5312 20.2949Z" fill="white"/>
<path d="M21.0004 7.16137C21.0004 7.16137 5.10401 4.54829 3.23384 7.16137C1.36367 9.77446 2.46768 19.4988 3.23384 20.7494C4 22 5.5 22 7.5 21.5" stroke="white" stroke-width="2.5" stroke-linecap="round" stroke-linejoin="round"/>
<path d="M15.9961 1.71558C15.9961 1.71558 21.7989 5.61291 21.7989 7.49991C21.7989 9.38691 15.9961 13.2781 15.9961 13.2781" stroke="white" stroke-width="2.3125" stroke-linecap="round" stroke-linejoin="round"/>
</g>
<defs>
<clipPath id="clip0_754_3613">
<rect width="24" height="24" fill="white"/>
</clipPath>
</defs>
</svg>
