<svg width="24" height="24" viewBox="0 0 24 24" fill="none" xmlns="http://www.w3.org/2000/svg">
<path d="M21.25 18.5V15.5C21.25 15.3011 21.171 15.1103 21.0303 14.9697C20.8897 14.829 20.6989 14.75 20.5 14.75C20.3011 14.75 20.1103 14.829 19.9697 14.9697C19.829 15.1103 19.75 15.3011 19.75 15.5V18.5C19.75 18.8315 19.6183 19.1495 19.3839 19.3839C19.1495 19.6183 18.8315 19.75 18.5 19.75H15.5C15.3011 19.75 15.1103 19.829 14.9697 19.9697C14.829 20.1103 14.75 20.3011 14.75 20.5C14.75 20.6989 14.829 20.8897 14.9697 21.0303C15.1103 21.171 15.3011 21.25 15.5 21.25H18.5C19.2293 21.25 19.9288 20.9603 20.4445 20.4445C20.9603 19.9288 21.25 19.2293 21.25 18.5ZM18.5 3.75H15.5C15.3011 3.75 15.1103 3.82902 14.9697 3.96967C14.829 4.11032 14.75 4.30109 14.75 4.5C14.75 4.69891 14.829 4.88968 14.9697 5.03033C15.1103 5.17098 15.3011 5.25 15.5 5.25H18.5C18.8315 5.25 19.1495 5.3817 19.3839 5.61612C19.6183 5.85054 19.75 6.16848 19.75 6.5V9.5C19.75 9.69891 19.829 9.88968 19.9697 10.0303C20.1103 10.171 20.3011 10.25 20.5 10.25C20.6989 10.25 20.8897 10.171 21.0303 10.0303C21.171 9.88968 21.25 9.69891 21.25 9.5V6.5C21.25 5.77065 20.9603 5.07118 20.4445 4.55546C19.9288 4.03973 19.2293 3.75 18.5 3.75ZM4.5 10.25C4.69891 10.25 4.88968 10.171 5.03033 10.0303C5.17098 9.88968 5.25 9.69891 5.25 9.5V6.5C5.25 6.16848 5.3817 5.85054 5.61612 5.61612C5.85054 5.3817 6.16848 5.25 6.5 5.25H9.5C9.69891 5.25 9.88968 5.17098 10.0303 5.03033C10.171 4.88968 10.25 4.69891 10.25 4.5C10.25 4.30109 10.171 4.11032 10.0303 3.96967C9.88968 3.82902 9.69891 3.75 9.5 3.75H6.5C5.77065 3.75 5.07118 4.03973 4.55546 4.55546C4.03973 5.07118 3.75 5.77065 3.75 6.5V9.5C3.75 9.69891 3.82902 9.88968 3.96967 10.0303C4.11032 10.171 4.30109 10.25 4.5 10.25ZM9.5 21.25C9.69891 21.25 9.88968 21.171 10.0303 21.0303C10.171 20.8897 10.25 20.6989 10.25 20.5C10.25 20.3011 10.171 20.1103 10.0303 19.9697C9.88968 19.829 9.69891 19.75 9.5 19.75H6.5C6.16848 19.75 5.85054 19.6183 5.61612 19.3839C5.3817 19.1495 5.25 18.8315 5.25 18.5V15.5C5.25 15.3011 5.17098 15.1103 5.03033 14.9697C4.88968 14.829 4.69891 14.75 4.5 14.75C4.30109 14.75 4.11032 14.829 3.96967 14.9697C3.82902 15.1103 3.75 15.3011 3.75 15.5V18.5C3.75 19.2293 4.03973 19.9288 4.55546 20.4445C5.07118 20.9603 5.77065 21.25 6.5 21.25H9.5Z" fill="white" stroke="white" stroke-width="0.5"/>
</svg>
