<svg width="24" height="24" viewBox="0 0 24 24" fill="none" xmlns="http://www.w3.org/2000/svg">
<mask id="path-1-outside-1_725_41287" maskUnits="userSpaceOnUse" x="4" y="6" width="17" height="13" fill="black">
<rect fill="white" x="4" y="6" width="17" height="13"/>
<path d="M20 7.5C20 7.63261 19.9473 7.75979 19.8536 7.85355C19.7598 7.94732 19.6326 8 19.5 8H5.5C5.36739 8 5.24021 7.94732 5.14645 7.85355C5.05268 7.75979 5 7.63261 5 7.5C5 7.36739 5.05268 7.24021 5.14645 7.14645C5.24021 7.05268 5.36739 7 5.5 7H19.5C19.6326 7 19.7598 7.05268 19.8536 7.14645C19.9473 7.24021 20 7.36739 20 7.5ZM10 12.5C10 12.6326 9.94732 12.7598 9.85355 12.8536C9.75979 12.9473 9.63261 13 9.5 13H5.5C5.36739 13 5.24021 12.9473 5.14645 12.8536C5.05268 12.7598 5 12.6326 5 12.5C5 12.3674 5.05268 12.2402 5.14645 12.1464C5.24021 12.0527 5.36739 12 5.5 12H9.5C9.63261 12 9.75979 12.0527 9.85355 12.1464C9.94732 12.2402 10 12.3674 10 12.5ZM10 17.5C10 17.6326 9.94732 17.7598 9.85355 17.8536C9.75979 17.9473 9.63261 18 9.5 18H5.5C5.36739 18 5.24021 17.9473 5.14645 17.8536C5.05268 17.7598 5 17.6326 5 17.5C5 17.3674 5.05268 17.2402 5.14645 17.1464C5.24021 17.0527 5.36739 17 5.5 17H9.5C9.63261 17 9.75979 17.0527 9.85355 17.1464C9.94732 17.2402 10 17.3674 10 17.5Z"/>
</mask>
<path d="M20 7.5C20 7.63261 19.9473 7.75979 19.8536 7.85355C19.7598 7.94732 19.6326 8 19.5 8H5.5C5.36739 8 5.24021 7.94732 5.14645 7.85355C5.05268 7.75979 5 7.63261 5 7.5C5 7.36739 5.05268 7.24021 5.14645 7.14645C5.24021 7.05268 5.36739 7 5.5 7H19.5C19.6326 7 19.7598 7.05268 19.8536 7.14645C19.9473 7.24021 20 7.36739 20 7.5ZM10 12.5C10 12.6326 9.94732 12.7598 9.85355 12.8536C9.75979 12.9473 9.63261 13 9.5 13H5.5C5.36739 13 5.24021 12.9473 5.14645 12.8536C5.05268 12.7598 5 12.6326 5 12.5C5 12.3674 5.05268 12.2402 5.14645 12.1464C5.24021 12.0527 5.36739 12 5.5 12H9.5C9.63261 12 9.75979 12.0527 9.85355 12.1464C9.94732 12.2402 10 12.3674 10 12.5ZM10 17.5C10 17.6326 9.94732 17.7598 9.85355 17.8536C9.75979 17.9473 9.63261 18 9.5 18H5.5C5.36739 18 5.24021 17.9473 5.14645 17.8536C5.05268 17.7598 5 17.6326 5 17.5C5 17.3674 5.05268 17.2402 5.14645 17.1464C5.24021 17.0527 5.36739 17 5.5 17H9.5C9.63261 17 9.75979 17.0527 9.85355 17.1464C9.94732 17.2402 10 17.3674 10 17.5Z" fill="white"/>
<path d="M19.5 7.5V7.5L20.2071 8.20711C20.3946 8.01957 20.5 7.76522 20.5 7.5H19.5ZM19.5 7.5V7.5V8.5C19.7652 8.5 20.0196 8.39464 20.2071 8.20711L19.5 7.5ZM19.5 7.5H5.5V8.5H19.5V7.5ZM5.5 7.5L5.5 7.5L4.79289 8.20711C4.98043 8.39464 5.23478 8.5 5.5 8.5V7.5ZM5.5 7.5L5.5 7.5H4.5C4.5 7.76522 4.60536 8.01957 4.79289 8.20711L5.5 7.5ZM5.5 7.5L5.5 7.5L4.79289 6.79289C4.60536 6.98043 4.5 7.23478 4.5 7.5H5.5ZM5.5 7.5L5.5 7.5V6.5C5.23478 6.5 4.98043 6.60536 4.79289 6.79289L5.5 7.5ZM5.5 7.5H19.5V6.5H5.5V7.5ZM19.5 7.5V7.5L20.2071 6.79289C20.0196 6.60536 19.7652 6.5 19.5 6.5V7.5ZM19.5 7.5V7.5H20.5C20.5 7.23478 20.3946 6.98043 20.2071 6.79289L19.5 7.5ZM9.5 12.5L9.5 12.5L10.2071 13.2071C10.3946 13.0196 10.5 12.7652 10.5 12.5H9.5ZM9.5 12.5L9.5 12.5V13.5C9.76521 13.5 10.0196 13.3946 10.2071 13.2071L9.5 12.5ZM9.5 12.5H5.5V13.5H9.5V12.5ZM5.5 12.5L5.5 12.5L4.79289 13.2071C4.98043 13.3946 5.23478 13.5 5.5 13.5V12.5ZM5.5 12.5L5.5 12.5H4.5C4.5 12.7652 4.60536 13.0196 4.79289 13.2071L5.5 12.5ZM5.5 12.5L5.5 12.5L4.79289 11.7929C4.60536 11.9804 4.5 12.2348 4.5 12.5H5.5ZM5.5 12.5L5.5 12.5V11.5C5.23478 11.5 4.98043 11.6054 4.79289 11.7929L5.5 12.5ZM5.5 12.5H9.5V11.5H5.5V12.5ZM9.5 12.5L9.5 12.5L10.2071 11.7929C10.0196 11.6054 9.76521 11.5 9.5 11.5V12.5ZM9.5 12.5L9.5 12.5H10.5C10.5 12.2348 10.3946 11.9804 10.2071 11.7929L9.5 12.5ZM9.5 17.5H9.5L10.2071 18.2071C10.3946 18.0196 10.5 17.7652 10.5 17.5H9.5ZM9.5 17.5H9.5V18.5C9.76521 18.5 10.0196 18.3946 10.2071 18.2071L9.5 17.5ZM9.5 17.5H5.5V18.5H9.5V17.5ZM5.5 17.5H5.5L4.79289 18.2071C4.98043 18.3946 5.23478 18.5 5.5 18.5V17.5ZM5.5 17.5H5.5H4.5C4.5 17.7652 4.60536 18.0196 4.79289 18.2071L5.5 17.5ZM5.5 17.5H5.5L4.79289 16.7929C4.60536 16.9804 4.5 17.2348 4.5 17.5H5.5ZM5.5 17.5H5.5V16.5C5.23478 16.5 4.98043 16.6054 4.79289 16.7929L5.5 17.5ZM5.5 17.5H9.5V16.5H5.5V17.5ZM9.5 17.5H9.5L10.2071 16.7929C10.0196 16.6054 9.76521 16.5 9.5 16.5V17.5ZM9.5 17.5H9.5H10.5C10.5 17.2348 10.3946 16.9804 10.2071 16.7929L9.5 17.5Z" fill="white" mask="url(#path-1-outside-1_725_41287)"/>
<path fill-rule="evenodd" clip-rule="evenodd" d="M21 14.9935C21 13.912 14.3476 10.4522 13.593 11.0743C12.8398 11.6964 12.7658 18.2321 13.593 18.9128C14.4216 19.5959 21 16.075 21 14.9935Z" fill="white"/>
</svg>
