<svg width="19" height="19" viewBox="0 0 19 19" fill="none" xmlns="http://www.w3.org/2000/svg">
<path d="M18.0303 13.0303C18.171 12.8897 18.25 12.6989 18.25 12.5C18.25 12.3011 18.171 12.1103 18.0303 11.9697C17.8897 11.829 17.6989 11.75 17.5 11.75H14.5C13.7707 11.75 13.0712 12.0397 12.5555 12.5555C12.0397 13.0712 11.75 13.7707 11.75 14.5V17.5C11.75 17.6989 11.829 17.8897 11.9697 18.0303C12.1103 18.171 12.3011 18.25 12.5 18.25C12.6989 18.25 12.8897 18.171 13.0303 18.0303C13.171 17.8897 13.25 17.6989 13.25 17.5V14.5C13.25 14.1685 13.3817 13.8505 13.6161 13.6161C13.8505 13.3817 14.1685 13.25 14.5 13.25H17.5C17.6989 13.25 17.8897 13.171 18.0303 13.0303ZM17.5 5.75H14.5C14.1685 5.75 13.8505 5.6183 13.6161 5.38388C13.3817 5.14946 13.25 4.83152 13.25 4.5V1.5C13.25 1.30109 13.171 1.11032 13.0303 0.96967C12.8897 0.829018 12.6989 0.75 12.5 0.75C12.3011 0.75 12.1103 0.829018 11.9697 0.96967C11.829 1.11032 11.75 1.30109 11.75 1.5V4.5C11.75 5.22935 12.0397 5.92882 12.5555 6.44454C13.0712 6.96027 13.7707 7.25 14.5 7.25H17.5C17.6989 7.25 17.8897 7.17098 18.0303 7.03033C18.171 6.88968 18.25 6.69891 18.25 6.5C18.25 6.30109 18.171 6.11032 18.0303 5.96967C17.8897 5.82902 17.6989 5.75 17.5 5.75ZM0.75 6.5C0.75 6.69891 0.829018 6.88968 0.96967 7.03033C1.11032 7.17098 1.30109 7.25 1.5 7.25H4.5C5.22935 7.25 5.92882 6.96027 6.44454 6.44454C6.96027 5.92882 7.25 5.22935 7.25 4.5V1.5C7.25 1.30109 7.17098 1.11032 7.03033 0.96967C6.88968 0.829018 6.69891 0.75 6.5 0.75C6.30109 0.75 6.11032 0.829018 5.96967 0.96967C5.82902 1.11032 5.75 1.30109 5.75 1.5V4.5C5.75 4.83152 5.6183 5.14946 5.38388 5.38388C5.14946 5.6183 4.83152 5.75 4.5 5.75H1.5C1.30109 5.75 1.11032 5.82902 0.96967 5.96967C0.829018 6.11032 0.75 6.30109 0.75 6.5ZM5.75 14.5V17.5C5.75 17.6989 5.82902 17.8897 5.96967 18.0303C6.11032 18.171 6.30109 18.25 6.5 18.25C6.69891 18.25 6.88968 18.171 7.03033 18.0303C7.17098 17.8897 7.25 17.6989 7.25 17.5V14.5C7.25 13.7707 6.96027 13.0712 6.44454 12.5555C5.92882 12.0397 5.22935 11.75 4.5 11.75H1.5C1.30109 11.75 1.11032 11.829 0.96967 11.9697C0.829018 12.1103 0.75 12.3011 0.75 12.5C0.75 12.6989 0.829018 12.8897 0.96967 13.0303C1.11032 13.171 1.30109 13.25 1.5 13.25H4.5C4.83152 13.25 5.14946 13.3817 5.38388 13.6161C5.6183 13.8505 5.75 14.1685 5.75 14.5Z" fill="white" stroke="white" stroke-width="0.5"/>
</svg>
