<svg width="18" height="16" viewBox="0 0 18 16" fill="none" xmlns="http://www.w3.org/2000/svg">
<path d="M15.6559 4.63452C16.9092 6.90563 16.9092 9.67719 15.6559 11.9403" stroke="white" stroke-width="2" stroke-linecap="round" stroke-linejoin="round"/>
<path fill-rule="evenodd" clip-rule="evenodd" d="M1.66723 8.28734C1.66367 9.50601 1.66723 10.9353 2.67345 11.7896C3.67967 12.6447 4.47878 12.2918 5.781 12.7202C7.08412 13.1496 8.909 15.7967 10.925 14.6011C12.0148 13.8269 12.5286 12.3656 12.5286 8.28734C12.5286 4.20912 12.0379 2.76379 10.925 1.97357C8.909 0.778898 7.08412 3.42601 5.781 3.85445C4.47878 4.28379 3.67967 3.9309 2.67345 4.78512C1.66723 5.63934 1.66367 7.06868 1.66723 8.28734Z" stroke="white" stroke-width="2" stroke-linecap="round" stroke-linejoin="round"/>
</svg>
